<svg width="512" height="132" viewBox="0 0 512 132" xmlns="http://www.w3.org/2000/svg">
  <g fill="#FFFFFF">
    <path d="M71.9 0L0 41.3v24.4l71.9-41.3 71.9 41.3V41.3L71.9 0zM0 82.6v24.4l71.9-41.3 71.9 41.3V82.6L71.9 41.3 0 82.6z"/>
    <path d="M207.4 44.6h-41.3v82.6h41.3c27.4 0 48.6-21.2 48.6-48.6s-21.2-48.6-48.6-48.6zm0 75.3h-20V51.9h20c20.5 0 34.6 14.1 34.6 34.6s-14.1 34.6-34.6 34.6zM305.3 44.6c-27.4 0-48.6 21.2-48.6 48.6s21.2 48.6 48.6 48.6 48.6-21.2 48.6-48.6-21.2-48.6-48.6-48.6zm0 82.6c-20.5 0-34.6-14.1-34.6-34.6s14.1-34.6 34.6-34.6 34.6 14.1 34.6 34.6-14.1 34.6-34.6 34.6zM430.6 44.6c-27.4 0-48.6 21.2-48.6 48.6s21.2 48.6 48.6 48.6 48.6-21.2 48.6-48.6-21.2-48.6-48.6-48.6zm0 82.6c-20.5 0-34.6-14.1-34.6-34.6s14.1-34.6 34.6-34.6 34.6 14.1 34.6 34.6-14.1 34.6-34.6 34.6zM512 44.6h-13.9v82.6H512V44.6z"/>
  </g>
</svg>
